<svg xmlns="http://www.w3.org/2000/svg" viewBox="0 0 135.18 28.25"><defs><style>.cls-1{fill:#e10012;}.cls-2{fill:#fff;}</style></defs><g id="レイヤー_2" data-name="レイヤー 2"><g id="design"><rect class="cls-1" width="135.18" height="28.25" rx="10"/><path class="cls-2" d="M26.88,12.93a9.85,9.85,0,0,1,2.28-.31c1.82,0,3.26,1,3.26,2.6,0,1.41-.73,2.46-2.61,2.93a9.19,9.19,0,0,1-1.56.19l-.55-1.52a9.3,9.3,0,0,0,1.46-.08c1-.17,1.73-.66,1.73-1.53s-.72-1.27-1.75-1.27a8.14,8.14,0,0,0-2.23.33c0,.94.05,1.85.05,2.26,0,1.48-.54,1.86-1.3,1.86-1.17,0-2.81-1-2.81-2.25,0-1.05,1.21-2.11,2.66-2.75,0-.28,0-.55,0-.83v-1l-.63,0c-.54,0-1.14,0-1.66-.06l0-1.44a12,12,0,0,0,1.64.1l.68,0c0-.42,0-.76,0-1a8.39,8.39,0,0,0-.09-1h1.63c0,.21-.07.73-.09,1s0,.55,0,.85a16.42,16.42,0,0,0,2.18-.44l0,1.48a22.82,22.82,0,0,1-2.27.38c0,.36,0,.72,0,1.06Zm-1.31,3.34c0-.3,0-.84,0-1.47-.73.38-1.21.87-1.21,1.29s.55.69.86.69S25.57,16.68,25.57,16.27Zm4.9-6.84a27.59,27.59,0,0,1,2.91,1.67l-.72,1.22a17.39,17.39,0,0,0-2.85-1.72Z"/><path class="cls-2" d="M36.24,9.72H40.8v1.13H36.24Zm4.22,8.69H38v.47h-1.2V14.79h3.69ZM40.4,12.5H36.81V11.43H40.4Zm-3.59.6H40.4v1.08H36.81Zm3.61-4H36.88V8.06h3.54ZM38,15.92v1.37h1.28V15.92Zm6.94-3.43v1.58H47v4.78H45.59v-.53H42.86v.57H41.51V14.07h2V12.49H40.88V11.16h2.58V9.7c-.67.08-1.35.14-2,.19a4.94,4.94,0,0,0-.38-1.2,26.24,26.24,0,0,0,5.08-.88l1,1.19a18.34,18.34,0,0,1-2.27.49v1.67h2.58v1.33Zm.68,2.87H42.86V17h2.73Z"/><path class="cls-2" d="M55.3,16.12c0-.34,0-.9,0-1.41-.87.48-1.35.95-1.35,1.53s.56.84,1.73.84a18.79,18.79,0,0,0,3.37-.34L59,18.28a31.88,31.88,0,0,1-3.36.19c-1.86,0-3.26-.44-3.26-2s1.44-2.47,2.79-3.17a.93.93,0,0,0-.83-.41,2.92,2.92,0,0,0-1.85.82A16.35,16.35,0,0,0,51.42,15l-1.27-.94a11.45,11.45,0,0,0,2.61-3.26h-.14c-.48,0-1.35,0-2-.09V9.36a14.66,14.66,0,0,0,2.09.13h.57a6.78,6.78,0,0,0,.24-1.35l1.56.13a11.45,11.45,0,0,1-.29,1.17,27.69,27.69,0,0,0,3.36-.34v1.39a38.62,38.62,0,0,1-3.88.31,7.33,7.33,0,0,1-.68,1.2,3.63,3.63,0,0,1,1.34-.24,1.63,1.63,0,0,1,1.59.92c.61-.29,1.11-.49,1.6-.71s.88-.4,1.31-.61l.6,1.38a12.7,12.7,0,0,0-1.41.51c-.53.2-1.2.46-1.94.8,0,.66,0,1.53,0,2.07Z"/><path class="cls-2" d="M66.91,8.16a19.9,19.9,0,0,1-1.1,2.46v8.25H64.43V12.81c-.25.33-.5.63-.74.9a7.92,7.92,0,0,0-.75-1.48,12.89,12.89,0,0,0,2.68-4.5Zm5,3.48h-5.1V10.4h5.1ZM74,17.19c0,.78-.16,1.19-.65,1.44a5.75,5.75,0,0,1-2.27.26,5.78,5.78,0,0,0-.47-1.46c.68.05,1.43,0,1.66,0s.3-.09.3-.29V9.58H67V8.29h7Zm-5.58-.68v.81H67.09V12.48h4.28v4Zm0-2.83v1.63h1.65V13.68Z"/><path class="cls-2" d="M78.48,12.44a17.13,17.13,0,0,1,4.26-.92,2.83,2.83,0,0,1,3.13,2.91c0,2.15-1.88,3.63-5.66,3.85l-.62-1.47c2.69-.07,4.71-.78,4.71-2.4a1.53,1.53,0,0,0-1.71-1.51,16.13,16.13,0,0,0-4.76,1.41l-.61-1.56A10.05,10.05,0,0,0,78.48,12.44Z"/><path class="cls-2" d="M95,11a22.07,22.07,0,0,1-2.3.38c-.11.52-.23,1.05-.36,1.53a38.82,38.82,0,0,1-1.89,5.49l-1.66-.55a27,27,0,0,0,2-5.35c.08-.31.16-.65.25-1l-.78,0c-.58,0-1,0-1.44,0l0-1.48a12.08,12.08,0,0,0,1.5.09l1.06,0c0-.27.08-.5.11-.69a6.51,6.51,0,0,0,0-1.2l1.81.15c-.09.32-.2.85-.26,1.11l-.09.46c.67-.11,1.34-.24,2-.4Zm-.24,3.9a3.88,3.88,0,0,0-.17,1c0,.52.3.9,1.57.9a13.4,13.4,0,0,0,2.47-.24l-.06,1.53a19.82,19.82,0,0,1-2.42.16c-2,0-3-.69-3-1.89a8.52,8.52,0,0,1,.2-1.58Zm-.7-3c.66-.06,1.51-.12,2.28-.12s1.39,0,2.09.11l0,1.43a17.39,17.39,0,0,0-2-.15,16.87,16.87,0,0,0-2.29.14Z"/><path class="cls-2" d="M106.85,11c0,.51-.07,1-.14,1.56h4.63s0,.43,0,.62c-.22,3.26-.47,4.61-1,5.13a1.72,1.72,0,0,1-1.3.55,15.3,15.3,0,0,1-2,0,3.34,3.34,0,0,0-.5-1.4,19.19,19.19,0,0,0,2,.09.78.78,0,0,0,.58-.16c.31-.26.53-1.31.7-3.49h-3.3A7,7,0,0,1,102.64,19a4.62,4.62,0,0,0-1-1.21c3.24-1.5,3.51-4.24,3.65-6.8h-3.43V9.6h4.59v-2h1.47v2h4.74V11Z"/></g></g></svg>