<svg xmlns="http://www.w3.org/2000/svg" viewBox="0 0 130.02 35"><defs><style>.cls-1{fill:#e10012;}.cls-2{fill:#fff;}</style></defs><g id="レイヤー_2" data-name="レイヤー 2"><g id="レイヤー_1-2" data-name="レイヤー 1"><path class="cls-1" d="M0,30V6A5.74,5.74,0,0,1,.12,4.83,5.93,5.93,0,0,1,1,2.67,6.15,6.15,0,0,1,2.67,1,5.93,5.93,0,0,1,4.83.12,5.81,5.81,0,0,1,6,0H30a5.81,5.81,0,0,1,1.17.12A5.93,5.93,0,0,1,33.33,1a5.5,5.5,0,0,1,.91.75,6,6,0,0,1,.75.91,5.65,5.65,0,0,1,.55,1,6.42,6.42,0,0,1,.35,1.13A6.53,6.53,0,0,1,36,6V30a6.62,6.62,0,0,1-.11,1.17,6.42,6.42,0,0,1-.35,1.13,6,6,0,0,1-.55,1c-.22.33-.47-.37-.75-.09a5.5,5.5,0,0,1-.91.75,5.93,5.93,0,0,1-2.16.89A5.81,5.81,0,0,1,30,35H6a5.81,5.81,0,0,1-1.17-.12A5.93,5.93,0,0,1,2.67,34a6,6,0,0,1-.91-.75c-.28-.28-.53.42-.75.09a6,6,0,0,1-.55-1,5.65,5.65,0,0,1-.34-1.13A5.81,5.81,0,0,1,0,30Z"/><path class="cls-2" d="M28,13.2c0,.23,0,.45,0,.67A14.7,14.7,0,0,1,5.4,26.25a10.36,10.36,0,0,0,1.25.06,10.36,10.36,0,0,0,6.41-2.2,5.19,5.19,0,0,1-4.83-3.59,6.27,6.27,0,0,0,1,.08,5.49,5.49,0,0,0,1.35-.17,5.17,5.17,0,0,1-4.14-5.07V15.3A5.24,5.24,0,0,0,8.76,16,5.19,5.19,0,0,1,7.16,9a14.67,14.67,0,0,0,10.65,5.41,5.94,5.94,0,0,1-.13-1.19,5.17,5.17,0,0,1,8.94-3.53A10.1,10.1,0,0,0,29.9,8.48a5.19,5.19,0,0,1-2.27,2.85,10.28,10.28,0,0,0,3-.8A11.13,11.13,0,0,1,28,13.2Z"/><path class="cls-1" d="M48,30V6a5.74,5.74,0,0,1,.12-1.17A5.93,5.93,0,0,1,49,2.67,6.15,6.15,0,0,1,50.68,1,5.93,5.93,0,0,1,52.84.12,5.81,5.81,0,0,1,54,0H78a5.81,5.81,0,0,1,1.17.12A5.93,5.93,0,0,1,81.34,1,6.15,6.15,0,0,1,83,2.67a5.65,5.65,0,0,1,.55,1,6.42,6.42,0,0,1,.35,1.13A6.53,6.53,0,0,1,84,6V30a6.62,6.62,0,0,1-.11,1.17,6.42,6.42,0,0,1-.35,1.13,6,6,0,0,1-.55,1c-.22.33-.47-.37-.75-.09a6,6,0,0,1-.91.75,5.93,5.93,0,0,1-2.16.89A5.81,5.81,0,0,1,78,35H54a5.81,5.81,0,0,1-1.17-.12A5.93,5.93,0,0,1,50.68,34a6,6,0,0,1-.91-.75c-.28-.28-.53.42-.75.09a6,6,0,0,1-.55-1,5.65,5.65,0,0,1-.34-1.13A5.81,5.81,0,0,1,48,30Z"/><path class="cls-2" d="M71.42,19.46l.65-4.23H68V12.48a2.12,2.12,0,0,1,2.39-2.29h1.84V6.59A22.12,22.12,0,0,0,69,6.3c-3.34,0-5.53,2-5.53,5.7v3.23H59.71v4.23h3.72V29.7H68V19.46Z"/><path class="cls-2" d="M96.4,28.55V8.15a5.56,5.56,0,0,1,.1-1,6.26,6.26,0,0,1,.29-1,5.39,5.39,0,0,1,.48-.88,5.05,5.05,0,0,1,.63-.77,4.61,4.61,0,0,1,.77-.63,4.39,4.39,0,0,1,.88-.47,5.34,5.34,0,0,1,1-.3,5.52,5.52,0,0,1,1-.09h20.4a5.55,5.55,0,0,1,1,.09,5.34,5.34,0,0,1,1,.3,4.39,4.39,0,0,1,.88.47,4.24,4.24,0,0,1,.77.63,5.81,5.81,0,0,1,.64.77,6.21,6.21,0,0,1,.47.88,5.31,5.31,0,0,1,.29,1,5.55,5.55,0,0,1,.09,1v20.4a5.52,5.52,0,0,1-.09,1,5.31,5.31,0,0,1-.29,1,5.71,5.71,0,0,1-.47.88,5.45,5.45,0,0,1-1.41,1.41,5.71,5.71,0,0,1-.88.47,5.31,5.31,0,0,1-1,.29,5.56,5.56,0,0,1-1,.1H101.5a5.54,5.54,0,0,1-1-.1,5.31,5.31,0,0,1-1-.29,5.71,5.71,0,0,1-.88-.47,5.23,5.23,0,0,1-.77-.64,4.24,4.24,0,0,1-.63-.77,5,5,0,0,1-.48-.88,6.26,6.26,0,0,1-.29-1A5.54,5.54,0,0,1,96.4,28.55Z"/><path class="cls-1" d="M125.07,16.42c0-5.87-5.88-10.64-13.11-10.64s-13.1,4.77-13.1,10.64c0,5.25,4.66,9.66,11,10.49,1.53.33,1.36.89,1,3-.06.33-.27,1.29,1.13.71s7.55-4.45,10.31-7.61A9.53,9.53,0,0,0,125.07,16.42Zm5-9.86V29.49c0,3.6-3,5.52-6.57,5.51H100.53C96.93,35,94,33,94,29.43V6.51A6.55,6.55,0,0,1,100.58,0h22.93A6.55,6.55,0,0,1,130,6.56Zm-9.31,7H117a.26.26,0,0,0-.25.26v5.71a.26.26,0,0,0,.25.26h3.68a.25.25,0,0,0,.25-.26v-.91a.25.25,0,0,0-.25-.26h-2.5v-1h2.5a.25.25,0,0,0,.25-.25v-.93a.26.26,0,0,0-.25-.26h-2.5V15h2.5a.25.25,0,0,0,.25-.26v-.91a.27.27,0,0,0-.25-.26Zm-13.62,4.79h-2.5V13.84a.26.26,0,0,0-.26-.26h-.92a.25.25,0,0,0-.25.26v5.71a.24.24,0,0,0,.07.18.26.26,0,0,0,.17.07h3.68a.25.25,0,0,0,.25-.26v-.91a.25.25,0,0,0-.24-.26Zm2.21-4.79h-.92a.25.25,0,0,0-.26.26v5.71a.25.25,0,0,0,.26.26h.92a.25.25,0,0,0,.25-.26V13.84a.26.26,0,0,0-.25-.26Zm6.58.26v5.71a.25.25,0,0,1-.25.26h-.92a.26.26,0,0,1-.21-.11l-2.62-3.53v3.39a.26.26,0,0,1-.25.26h-.92a.26.26,0,0,1-.26-.26V13.85a.25.25,0,0,1,.26-.26h.91a.25.25,0,0,1,.21.11l2.62,3.54V13.85a.25.25,0,0,1,.25-.26h.92a.25.25,0,0,1,.26.25Z"/></g></g></svg>