<svg xmlns="http://www.w3.org/2000/svg" viewBox="0 0 171.81 31.63"><defs><style>.cls-1{fill:#fff;}.cls-2{fill:#e10012;}</style></defs><g id="レイヤー_2" data-name="レイヤー 2"><g id="design"><path class="cls-1" d="M0,26.63v-20a4.59,4.59,0,0,1,.1-1,5.08,5.08,0,0,1,.28-.94,5.46,5.46,0,0,1,.46-.86,4.63,4.63,0,0,1,.63-.76,4.94,4.94,0,0,1,.75-.62C2.5,2.29,1.78.13,2.09,0S3.7,1.78,4,1.72a5.23,5.23,0,0,1,1-.09H25a5.41,5.41,0,0,1,1,.09,4.36,4.36,0,0,1,.93.29,4.51,4.51,0,0,1,.87.46,5.57,5.57,0,0,1,.76.62,4.57,4.57,0,0,1,.62.76,5.46,5.46,0,0,1,.46.86,5.11,5.11,0,0,1,.29.94,5.33,5.33,0,0,1,.09,1v20a5.31,5.31,0,0,1-.09,1,5.36,5.36,0,0,1-.29.94,5.46,5.46,0,0,1-.46.86,4.57,4.57,0,0,1-.62.76,5.57,5.57,0,0,1-.76.62,4.51,4.51,0,0,1-.87.46,4.36,4.36,0,0,1-.93.29,5.43,5.43,0,0,1-1,.1H5a5.23,5.23,0,0,1-1-.1,4.27,4.27,0,0,1-.94-.29,4.83,4.83,0,0,1-.87-.46,4.94,4.94,0,0,1-.75-.62,4.63,4.63,0,0,1-.63-.76,5.46,5.46,0,0,1-.46-.86A5.32,5.32,0,0,1,.1,27.6,4.57,4.57,0,0,1,0,26.63Z"/><path class="cls-2" d="M10.9,22.68a2.45,2.45,0,1,1-2.45-2.45,2.45,2.45,0,0,1,2.45,2.45Z"/><path class="cls-2" d="M6,14v3.19a8,8,0,0,1,8,8h3.19A11.14,11.14,0,0,0,6,14ZM6,7.62v3.19A14.32,14.32,0,0,1,20.32,25.13h3.19A17.52,17.52,0,0,0,6,7.62Z"/><path class="cls-1" d="M47.27,26.63v-20a4.59,4.59,0,0,1,.1-1,5.08,5.08,0,0,1,.28-.94,5.46,5.46,0,0,1,.46-.86,4.63,4.63,0,0,1,.63-.76,4.94,4.94,0,0,1,.75-.62A5.19,5.19,0,0,1,50.36,2a4.45,4.45,0,0,1,.94-.29,5.23,5.23,0,0,1,1-.09h20a5.33,5.33,0,0,1,1,.09,4.36,4.36,0,0,1,.93.29,4.51,4.51,0,0,1,.87.46,5,5,0,0,1,.76.62,4.57,4.57,0,0,1,.62.76,4.74,4.74,0,0,1,.46.86,5.11,5.11,0,0,1,.29.94,5.33,5.33,0,0,1,.09,1v20a5.31,5.31,0,0,1-.09,1,5.36,5.36,0,0,1-.29.94,4.74,4.74,0,0,1-.46.86,4.57,4.57,0,0,1-.62.76,5,5,0,0,1-.76.62,4.51,4.51,0,0,1-.87.46,4.36,4.36,0,0,1-.93.29,5.34,5.34,0,0,1-1,.1h-20a5.23,5.23,0,0,1-1-.1,4.45,4.45,0,0,1-.94-.29,5.19,5.19,0,0,1-.87-.46,4.94,4.94,0,0,1-.75-.62,4.63,4.63,0,0,1-.63-.76,5.46,5.46,0,0,1-.46-.86,5.32,5.32,0,0,1-.28-.94A4.57,4.57,0,0,1,47.27,26.63Z"/><path class="cls-2" d="M70.61,12.62a5.43,5.43,0,0,1,0,.57A12.26,12.26,0,0,1,51.77,23.5a8.94,8.94,0,0,0,1,.05,8.59,8.59,0,0,0,5.34-1.84,4.32,4.32,0,0,1-4-3,5.42,5.42,0,0,0,.81.06,4.75,4.75,0,0,0,1.14-.14,4.3,4.3,0,0,1-3.46-4.23v-.05a4.41,4.41,0,0,0,2,.55,4.31,4.31,0,0,1-1.92-3.59,4.2,4.2,0,0,1,.59-2.17,12.21,12.21,0,0,0,8.87,4.5,5.35,5.35,0,0,1-.11-1,4.31,4.31,0,0,1,7.45-2.95,8.19,8.19,0,0,0,2.74-1,4.31,4.31,0,0,1-1.9,2.38,8.91,8.91,0,0,0,2.48-.67,9.11,9.11,0,0,1-2.16,2.22Z"/><path class="cls-1" d="M94.54,26.63v-20a5.34,5.34,0,0,1,.1-1,5.08,5.08,0,0,1,.28-.94,4.79,4.79,0,0,1,.47-.86A4.57,4.57,0,0,1,96,3.09a4.94,4.94,0,0,1,.75-.62A5.19,5.19,0,0,1,97.63,2a4.45,4.45,0,0,1,.94-.29,5.23,5.23,0,0,1,1-.09h20a5.33,5.33,0,0,1,1,.09,4.63,4.63,0,0,1,.94.29,4.74,4.74,0,0,1,.86.46,5,5,0,0,1,.76.62,4.57,4.57,0,0,1,.62.76,4.74,4.74,0,0,1,.46.86,5.11,5.11,0,0,1,.29.94,5.33,5.33,0,0,1,.09,1v20a5.31,5.31,0,0,1-.09,1,5.36,5.36,0,0,1-.29.94,4.74,4.74,0,0,1-.46.86,4.57,4.57,0,0,1-.62.76,5,5,0,0,1-.76.62,4.74,4.74,0,0,1-.86.46,4.63,4.63,0,0,1-.94.29,5.34,5.34,0,0,1-1,.1h-20a5.23,5.23,0,0,1-1-.1,4.45,4.45,0,0,1-.94-.29,5.19,5.19,0,0,1-.87-.46,4.94,4.94,0,0,1-.75-.62,4.57,4.57,0,0,1-.62-.76,4.79,4.79,0,0,1-.47-.86,5.24,5.24,0,0,1-.38-1.91Z"/><path class="cls-2" d="M114.05,17.84l.54-3.53h-3.38V12a1.76,1.76,0,0,1,2-1.9h1.54v-3A19.53,19.53,0,0,0,112,6.88c-2.78,0-4.61,1.68-4.61,4.75v2.68h-3.1v3.53h3.1v8.53h3.82V17.84Z"/><rect class="cls-2" x="142.92" y="6.49" width="26" height="23"/><path class="cls-1" d="M167.69,15.31c0-4.89-4.9-8.87-10.92-8.87s-10.93,4-10.93,8.87c0,4.38,3.89,8,9.14,8.74,1.28.28,1.13.74.84,2.47,0,.27-.22,1.07,1,.58a35.15,35.15,0,0,0,8.58-6.34A7.91,7.91,0,0,0,167.69,15.31Zm4.12-8.21V26.2a5.46,5.46,0,0,1-5.47,5.43h-19.1a5.48,5.48,0,0,1-5.43-5.48V7.05a5.45,5.45,0,0,1,5.47-5.42h19.11A5.44,5.44,0,0,1,171.81,7.1Zm-7.76,5.84H161a.21.21,0,0,0-.21.22v4.76a.21.21,0,0,0,.21.21h3.06a.21.21,0,0,0,.22-.21v-.77a.21.21,0,0,0-.22-.21H162v-.8h2.08a.22.22,0,0,0,.22-.22v-.77a.21.21,0,0,0-.22-.21H162v-.81h2.08a.21.21,0,0,0,.22-.21v-.76a.23.23,0,0,0-.22-.22Zm-11.35,4h-2.08V13.16a.21.21,0,0,0-.21-.22h-.77a.21.21,0,0,0-.21.22v4.76a.18.18,0,0,0,.06.14.2.2,0,0,0,.14.06h3.07a.21.21,0,0,0,.21-.21v-.76a.21.21,0,0,0-.21-.22Zm1.84-4h-.76a.21.21,0,0,0-.21.22v4.76a.21.21,0,0,0,.21.21h.76a.21.21,0,0,0,.22-.21V13.16a.22.22,0,0,0-.22-.22Zm5.49.22v4.76a.21.21,0,0,1-.21.21h-.76a.23.23,0,0,1-.18-.09L156.7,15.1v2.82a.21.21,0,0,1-.21.22h-.77a.21.21,0,0,1-.21-.22V13.16a.21.21,0,0,1,.21-.21h.76a.19.19,0,0,1,.17.09l2.19,3V13.16a.21.21,0,0,1,.21-.21h.76a.21.21,0,0,1,.22.21Z"/></g></g></svg>