<svg xmlns="http://www.w3.org/2000/svg" viewBox="0 0 135.18 28.25"><defs><style>.cls-1{fill:#ff6c00;}.cls-2{fill:#fff;}</style></defs><g id="レイヤー_2" data-name="レイヤー 2"><g id="design"><rect class="cls-1" width="135.18" height="28.25" rx="10"/><path class="cls-2" d="M31.28,16.81a7.73,7.73,0,0,0,.11,1.57h-1.9a12.8,12.8,0,0,0,.09-1.57V12.87a22.9,22.9,0,0,1-4.13,1.63L24.59,13A18.11,18.11,0,0,0,30,10.87a12.31,12.31,0,0,0,3.13-2.71l1.29,1.16a19.13,19.13,0,0,1-3.18,2.58Z"/><path class="cls-2" d="M42.53,15.15a11.38,11.38,0,0,0,4.37-4.66l.93,1.69a12.81,12.81,0,0,1-4.44,4.44,13.06,13.06,0,0,1-4.45,1.69l-1-1.59A12.18,12.18,0,0,0,42.53,15.15Zm0-3.88-1.22,1.26a25,25,0,0,0-3-2.59l1.13-1.2A25.83,25.83,0,0,1,42.53,11.27Z"/><path class="cls-2" d="M60.86,10.2a5.17,5.17,0,0,0-.39.85,14.28,14.28,0,0,1-1.66,3.29c.44.27.85.55,1.15.76l-1.09,1.41a13.37,13.37,0,0,0-1.12-.85,11.38,11.38,0,0,1-4.42,3l-1.39-1.21a10.13,10.13,0,0,0,4.47-2.69c-.81-.52-1.63-1-2.24-1.36l1-1.14c.63.32,1.45.78,2.25,1.26a8.69,8.69,0,0,0,1.25-2.56H55.25A14.15,14.15,0,0,1,52.08,14l-1.29-1a10.94,10.94,0,0,0,3.82-4,5.43,5.43,0,0,0,.54-1.26l1.74.54c-.29.42-.6,1-.74,1.22v0h2.45a3.61,3.61,0,0,0,1-.14Z"/><path class="cls-2" d="M66.5,16c0,.51.24.64.78.75a10.86,10.86,0,0,0,1.39.07,19.92,19.92,0,0,0,4.18-.42v1.76a35.7,35.7,0,0,1-4.27.25,12.46,12.46,0,0,1-2-.15,1.71,1.71,0,0,1-1.64-1.78V9.9a12.42,12.42,0,0,0-.09-1.25H66.6a9.14,9.14,0,0,0-.1,1.25v2.27a30.82,30.82,0,0,0,4.15-1.33A7.58,7.58,0,0,0,72,10.19l.65,1.52c-.47.19-1,.42-1.4.56a43.29,43.29,0,0,1-4.71,1.47Zm5.26-5.77a13,13,0,0,0-.94-1.66l1-.39c.3.44.73,1.2,1,1.64ZM73.18,7.6a14.36,14.36,0,0,1,1,1.63l-1,.41a13.08,13.08,0,0,0-1-1.66Z"/><path class="cls-2" d="M84.65,16.54c.31,0,.86,0,1.18,0V18l-1.14,0H78.37c-.44,0-.74,0-1.19,0V16.48a10.49,10.49,0,0,0,1.19.06h3.88c.17-1,.43-2.72.47-3.39H79.48c-.38,0-.85,0-1.2.06V11.63c.31,0,.87.07,1.19.07h3.07a3,3,0,0,0,.9-.13l1.15.56a3,3,0,0,0-.12.5c-.1.71-.41,2.77-.59,3.91Z"/><path class="cls-2" d="M99.64,9.73a7.36,7.36,0,0,0-.47.63,12,12,0,0,1-2.89,3.28l-1.23-1a7.18,7.18,0,0,0,2.2-2.23H91c-.51,0-.9,0-1.47.08V8.83A9.83,9.83,0,0,0,91,9h6.46a5.37,5.37,0,0,0,1.21-.11Zm-4.89,1.62c0,3-.06,5.42-3.34,7.17L90,17.38a4.39,4.39,0,0,0,1.26-.66c1.52-1,1.81-2.32,1.81-4.29A6.63,6.63,0,0,0,93,11.35Z"/><path class="cls-2" d="M102,12.3c.44,0,1.31.07,1.93.07h6.45c.55,0,1.09,0,1.4-.07v1.88c-.29,0-.9-.06-1.4-.06H104c-.68,0-1.48,0-1.93.06Z"/></g></g></svg>