<svg xmlns="http://www.w3.org/2000/svg" viewBox="0 0 93.4 93"><defs><style>.cls-1{fill:#df0012;}.cls-2{fill:#fff;}</style></defs><g id="レイヤー_2" data-name="レイヤー 2"><g id="design"><polygon class="cls-1" points="93.39 46.5 89.82 50.5 92.61 55.08 88.36 58.36 90.25 63.38 85.47 65.81 86.41 71.09 81.26 72.6 81.21 77.96 75.87 78.5 74.84 83.77 69.49 83.33 67.52 88.31 62.34 86.89 59.48 91.43 54.66 89.07 51.01 93 46.7 89.8 42.39 93 38.74 89.07 33.91 91.43 31.05 86.89 25.88 88.31 23.9 83.32 18.55 83.77 17.52 78.5 12.19 77.96 12.14 72.6 6.99 71.09 7.92 65.81 3.14 63.38 5.04 58.36 0.79 55.08 3.58 50.5 0 46.5 3.58 42.5 0.79 37.92 5.04 34.65 3.14 29.63 7.93 27.2 6.99 21.91 12.14 20.41 12.19 15.04 17.53 14.5 18.55 9.23 23.9 9.68 25.88 4.69 31.05 6.11 33.91 1.57 38.74 3.93 42.39 0 46.7 3.2 51.01 0 54.66 3.93 59.48 1.57 62.34 6.11 67.52 4.69 69.5 9.68 74.84 9.23 75.87 14.5 81.21 15.04 81.26 20.41 86.41 21.91 85.47 27.2 90.25 29.63 88.36 34.65 92.61 37.92 89.82 42.5 93.39 46.5"/><path class="cls-2" d="M20.91,71.63v-7.7h3.2a2.49,2.49,0,0,1,2,.7A2.51,2.51,0,0,1,26,68a2.44,2.44,0,0,1-1.93.73H22.23v2.91Zm3.27-4.17a1.06,1.06,0,0,0,.87-.34,1.18,1.18,0,0,0,.28-.8,1.25,1.25,0,0,0-.26-.79,1.06,1.06,0,0,0-.89-.34H22.23v2.27Z"/><path class="cls-2" d="M33,71.63,32.43,70H29.38l-.6,1.68h-1.4l2.87-7.7h1.31l2.86,7.7Zm-1-2.87-.84-2.31a6.47,6.47,0,0,1-.26-.78c-.06.21-.14.47-.25.78l-.86,2.31Z"/><path class="cls-2" d="M38.87,71.76a3.41,3.41,0,0,1-1.53-.33,2.77,2.77,0,0,1-1.06-.91,4.28,4.28,0,0,1-.59-1.26,5.14,5.14,0,0,1-.2-1.48,5.35,5.35,0,0,1,.12-1.13A4.44,4.44,0,0,1,36,65.57a3.79,3.79,0,0,1,.66-.91,2.8,2.8,0,0,1,1-.62,3.12,3.12,0,0,1,1.24-.24,2.9,2.9,0,0,1,1.62.41,3.79,3.79,0,0,1,1.07,1.14L40.38,66a1.81,1.81,0,0,0-1.51-.94,1.91,1.91,0,0,0-1,.24,1.81,1.81,0,0,0-.63.66,3.51,3.51,0,0,0-.32.87,4.08,4.08,0,0,0-.1.93,3.45,3.45,0,0,0,.51,1.93,1.68,1.68,0,0,0,1.51.78,1.46,1.46,0,0,0,1.06-.42,1.39,1.39,0,0,0,.42-1v-.12H39V67.68h2.69v1.07A3,3,0,0,1,40.9,71,2.75,2.75,0,0,1,38.87,71.76Z"/><path class="cls-2" d="M43.26,71.63v-7.7h5v1.25h-3.7V67h2.28v1.25H44.58v2.11h3.94v1.24Z"/><path class="cls-2" d="M55.72,65.2v6.43H54.4V65.2H52.21V63.93h5.7V65.2Z"/><path class="cls-2" d="M62.38,71.76a3.42,3.42,0,0,1-1.3-.23,2.79,2.79,0,0,1-1-.62,3.8,3.8,0,0,1-.64-.91,4.09,4.09,0,0,1-.36-1.07A5.41,5.41,0,0,1,59,67.78a5.47,5.47,0,0,1,.11-1.15,4.22,4.22,0,0,1,.36-1.07,4,4,0,0,1,.64-.91,2.94,2.94,0,0,1,1-.62,3.62,3.62,0,0,1,1.3-.23,3.4,3.4,0,0,1,1.57.35,2.74,2.74,0,0,1,1.06.93,4.51,4.51,0,0,1,.56,1.27,5.48,5.48,0,0,1,0,2.86A4.39,4.39,0,0,1,65,70.48a2.69,2.69,0,0,1-1.06.94A3.39,3.39,0,0,1,62.38,71.76Zm0-1.26a1.72,1.72,0,0,0,.94-.25,1.76,1.76,0,0,0,.63-.67,3.66,3.66,0,0,0,.34-.87,4.08,4.08,0,0,0,.11-.93,4.28,4.28,0,0,0-.11-1A3.76,3.76,0,0,0,64,66a1.71,1.71,0,0,0-.63-.65,1.78,1.78,0,0,0-.94-.24,1.61,1.61,0,0,0-1.17.44,2.34,2.34,0,0,0-.66,1,4.18,4.18,0,0,0-.18,1.24,4.35,4.35,0,0,0,.11,1,3.28,3.28,0,0,0,.34.87,1.68,1.68,0,0,0,.62.65A1.8,1.8,0,0,0,62.38,70.5Z"/><path class="cls-2" d="M67.35,71.63v-7.7h3.21a2.47,2.47,0,0,1,2,.7,2.41,2.41,0,0,1,.63,1.69,2.37,2.37,0,0,1-2.58,2.4H68.67v2.91Zm3.27-4.17a1.06,1.06,0,0,0,.87-.34,1.19,1.19,0,0,0,.29-.8,1.26,1.26,0,0,0-.27-.79,1.06,1.06,0,0,0-.89-.34h-2v2.27Z"/></g></g></svg>